<svg xmlns="http://www.w3.org/2000/svg" xmlns:xlink="http://www.w3.org/1999/xlink" width="176" height="34" viewBox="0 0 115.286 22.271">
  <defs>
    <clipPath id="clip-path">
      <path id="Path_2669" data-name="Path 2669" d="M51.283,123.381a35.851,35.851,0,0,0,5.848,9.148v-2.4c5.607,2.205,15.132,3.766,16.529,1.651a19.146,19.146,0,0,0,1.727-2.989c-1.727,1.122-4.387.748-6.582.234a67.813,67.813,0,0,1-9.988-3.314l1.486-2.334Z" transform="translate(-51.283 -123.381)" fill="#fff"/>
    </clipPath>
    <clipPath id="clip-path-2">
      <path id="Path_2672" data-name="Path 2672" d="M45.247,72.938a19.21,19.21,0,0,0-1.727,2.989c1.727-1.122,4.387-.748,6.582-.234a63.405,63.405,0,0,1,9.667,3.314l-1.487,2.334H67.3a35.888,35.888,0,0,0-5.849-9.149v2.4a39.83,39.83,0,0,0-12.626-2.653c-1.78,0-3.116.3-3.581,1" transform="translate(-43.52 -71.937)" fill="#fff"/>
    </clipPath>
  </defs>
  <g id="Group_1102" data-name="Group 1102" transform="translate(-43.52 -71.937)">
    <g id="Group_1098" data-name="Group 1098" transform="translate(45.462 84.803)">
      <path id="Path_2668" data-name="Path 2668" d="M51.283,123.381a35.851,35.851,0,0,0,5.848,9.148v-2.4c5.607,2.205,15.132,3.766,16.529,1.651a19.146,19.146,0,0,0,1.727-2.989c-1.727,1.122-4.387.748-6.582.234a67.813,67.813,0,0,1-9.988-3.314l1.486-2.334Z" transform="translate(-51.283 -123.381)" fill="#fff"/>
      <g id="Group_1097" data-name="Group 1097" transform="translate(0 0)" clip-path="url(#clip-path)">
        <rect id="Rectangle_1617" data-name="Rectangle 1617" width="18.249" height="26.258" transform="translate(-3.432 9.243) rotate(-69.633)" fill="#fff"/>
      </g>
    </g>
    <path id="Path_2670" data-name="Path 2670" d="M43.718,87.647l-.2.129c.548,1.5,6.231,4.431,12.521,6.934,3.181,1.267,11,5.155,11.464,7.145a4.367,4.367,0,0,0,1.846-.617l.219-.142c-.423-1.508-5.313-4.428-11.585-6.922-3.148-1.253-11.811-5.155-12.4-7.147a4.361,4.361,0,0,0-1.863.619" transform="translate(0 -11.317)" fill="#fff"/>
    <g id="Group_1100" data-name="Group 1100" transform="translate(43.52 71.937)">
      <path id="Path_2671" data-name="Path 2671" d="M45.247,72.938a19.21,19.21,0,0,0-1.727,2.989c1.727-1.122,4.387-.748,6.582-.234a63.405,63.405,0,0,1,9.667,3.314l-1.487,2.334H67.3a35.888,35.888,0,0,0-5.849-9.149v2.4a39.83,39.83,0,0,0-12.626-2.653c-1.78,0-3.116.3-3.581,1" transform="translate(-43.52 -71.937)" fill="#fff"/>
      <g id="Group_1099" data-name="Group 1099" clip-path="url(#clip-path-2)">
        <rect id="Rectangle_1618" data-name="Rectangle 1618" width="17.094" height="25.57" transform="matrix(0.348, -0.937, 0.937, 0.348, -3.068, 8.266)" fill="#fff"/>
      </g>
    </g>
    <path id="Path_2673" data-name="Path 2673" d="M175.409,77.478a6.236,6.236,0,0,1,2.536.455V78.8a6.062,6.062,0,0,0-2.536-.507c-2.133,0-2.9,1.834-2.9,4.188s.767,4.188,2.9,4.188a6.058,6.058,0,0,0,2.536-.507v.872a6.24,6.24,0,0,1-2.536.455c-2.913,0-3.837-2.237-3.837-5.008S172.5,77.478,175.409,77.478Z" transform="translate(-96.026 -4.155)" fill="#fff"/>
    <path id="Path_2674" data-name="Path 2674" d="M203.629,95.719c0,.845.494,1.105,1.3,1.105a3.126,3.126,0,0,0,1.756-.416V91h.91v6.5h-.507l-.2-.546a3.239,3.239,0,0,1-1.964.677c-1.548,0-2.211-.7-2.211-1.951V91h.91Z" transform="translate(-119.383 -14.294)" fill="#fff"/>
    <path id="Path_2675" data-name="Path 2675" d="M231.984,91.389a2.512,2.512,0,0,0-.78-.1,3.525,3.525,0,0,0-1.886.416v5.41h-.91v-6.5h.507l.2.546a3.529,3.529,0,0,1,2.094-.676,4.7,4.7,0,0,1,.78.065Z" transform="translate(-138.646 -13.905)" fill="#fff"/>
    <path id="Path_2676" data-name="Path 2676" d="M250.287,91.389a2.513,2.513,0,0,0-.78-.1,3.526,3.526,0,0,0-1.886.416v5.41h-.91v-6.5h.507l.195.546a3.53,3.53,0,0,1,2.094-.676,4.7,4.7,0,0,1,.78.065Z" transform="translate(-152.372 -13.905)" fill="#fff"/>
    <path id="Path_2677" data-name="Path 2677" d="M267.225,90.479c2.211,0,2.471,1.508,2.471,3.381v.416H265.4c.052,1.131.351,2.159,1.821,2.159a4.97,4.97,0,0,0,2.146-.364v.78a5.266,5.266,0,0,1-2.146.39c-2.2,0-2.731-1.509-2.731-3.382S265.027,90.479,267.225,90.479ZM265.4,93.535h3.381c0-1.157-.065-2.25-1.561-2.25S265.443,92.365,265.4,93.535Z" transform="translate(-165.707 -13.905)" fill="#fff"/>
    <path id="Path_2678" data-name="Path 2678" d="M294.928,92.391c0-.845-.494-1.105-1.3-1.105a3.125,3.125,0,0,0-1.756.416v5.41h-.91v-6.5h.507l.2.546a3.24,3.24,0,0,1,1.964-.676c1.548,0,2.211.7,2.211,1.951v4.682h-.91Z" transform="translate(-185.555 -13.905)" fill="#fff"/>
    <path id="Path_2679" data-name="Path 2679" d="M318.614,90.479a5.1,5.1,0,0,1,1.938.325v.78a5.567,5.567,0,0,0-1.951-.3c-1.639,0-1.821,1.288-1.821,2.575s.182,2.575,1.821,2.575a5.561,5.561,0,0,0,1.951-.3v.78a5.106,5.106,0,0,1-1.938.325c-2.2,0-2.744-1.509-2.744-3.382S316.416,90.479,318.614,90.479Z" transform="translate(-204.234 -13.905)" fill="#fff"/>
    <path id="Path_2680" data-name="Path 2680" d="M338.437,91l1.821,5.332L342.079,91h1.04l-3.746,9.755H338.4l1.47-3.42L337.4,91Z" transform="translate(-220.377 -14.294)" fill="#fff"/>
    <path id="Path_2681" data-name="Path 2681" d="M372.718,80.209c0,1.391.806,1.522,2.341,1.716,1.912.247,3.1.716,3.1,2.627,0,1.327-.7,2.939-3.6,2.939a8.037,8.037,0,0,1-2.731-.52v-.846a7.361,7.361,0,0,0,2.744.546c2.029,0,2.64-.949,2.64-2.12,0-1.392-.572-1.665-2.2-1.873-2.3-.286-3.187-.82-3.187-2.484,0-1.131.546-2.718,3.278-2.718a6.019,6.019,0,0,1,2.536.455V78.8a5.919,5.919,0,0,0-2.549-.507C373.16,78.3,372.718,79.182,372.718,80.209Z" transform="translate(-246.191 -4.155)" fill="#fff"/>
    <path id="Path_2682" data-name="Path 2682" d="M404.972,90.479c2.211,0,2.471,1.508,2.471,3.381v.416h-4.292c.052,1.131.351,2.159,1.821,2.159a4.972,4.972,0,0,0,2.146-.364v.78a5.268,5.268,0,0,1-2.146.39c-2.2,0-2.731-1.509-2.731-3.382S402.774,90.479,404.972,90.479Zm-1.821,3.056h3.381c0-1.157-.065-2.25-1.561-2.25S403.19,92.365,403.151,93.535Z" transform="translate(-269.003 -13.905)" fill="#fff"/>
    <path id="Path_2683" data-name="Path 2683" d="M429.54,86.452V78h.884v8.558c0,.455.143.585.546.585v.742C430.034,87.883,429.54,87.492,429.54,86.452Z" transform="translate(-289.475 -4.545)" fill="#fff"/>
    <path id="Path_2684" data-name="Path 2684" d="M442.826,90.479c2.211,0,2.471,1.508,2.471,3.381v.416h-4.292c.052,1.131.351,2.159,1.821,2.159a4.968,4.968,0,0,0,2.146-.364v.78a5.266,5.266,0,0,1-2.146.39c-2.2,0-2.731-1.509-2.731-3.382S440.628,90.479,442.826,90.479Zm-1.821,3.056h3.382c0-1.157-.065-2.25-1.561-2.25S441.044,92.365,441.005,93.535Z" transform="translate(-297.39 -13.905)" fill="#fff"/>
    <path id="Path_2685" data-name="Path 2685" d="M468.788,90.479a5.1,5.1,0,0,1,1.938.325v.78a5.564,5.564,0,0,0-1.951-.3c-1.639,0-1.821,1.288-1.821,2.575s.182,2.575,1.821,2.575a5.558,5.558,0,0,0,1.951-.3v.78a5.105,5.105,0,0,1-1.938.325c-2.2,0-2.744-1.509-2.744-3.382S466.59,90.479,468.788,90.479Z" transform="translate(-316.849 -13.905)" fill="#fff"/>
    <path id="Path_2686" data-name="Path 2686" d="M491.538,91.34a2.882,2.882,0,0,1-.585.052c-1.08,0-2.081-.494-2.081-1.769V85.474h-1.3v-.4l1.3-.377V82.938l.911-.26v2.081H491.8v.716h-2.016v4.045c0,.793.429,1.118,1.249,1.118.169,0,.338-.013.507-.026Z" transform="translate(-332.992 -8.055)" fill="#fff"/>
    <g id="Group_1101" data-name="Group 1101" transform="translate(76.34 88.84)">
      <path id="Path_2687" data-name="Path 2687" d="M174.746,143.608l1.425-4.087h.269l1.425,4.087h-.414l-.371-1.129h-1.549l-.371,1.129Zm.887-1.446h1.339l-.667-2.027Z" transform="translate(-174.746 -139.521)" fill="#fff"/>
      <path id="Path_2688" data-name="Path 2688" d="M193.086,141.591c0-1.145.382-2.07,1.586-2.07a2.424,2.424,0,0,1,1.129.226v.365a2.634,2.634,0,0,0-1.129-.253c-.882,0-1.2.758-1.2,1.731s.317,1.731,1.2,1.731a2.423,2.423,0,0,0,.871-.118v-1.377H194.7v-.339h1.21v1.952a2.918,2.918,0,0,1-1.237.22C193.468,143.661,193.086,142.737,193.086,141.591Z" transform="translate(-188.499 -139.521)" fill="#fff"/>
      <path id="Path_2689" data-name="Path 2689" d="M208.157,143.43h1.866v.339h-2.232v-4.033h.366Z" transform="translate(-199.526 -139.682)" fill="#fff"/>
      <path id="Path_2690" data-name="Path 2690" d="M217.983,141.591c0-1.054.188-2.07,1.506-2.07s1.505,1.016,1.505,2.07-.188,2.07-1.505,2.07S217.983,142.645,217.983,141.591Zm2.624,0c0-.968-.145-1.731-1.118-1.731s-1.118.763-1.118,1.731.145,1.731,1.118,1.731S220.607,142.559,220.607,141.591Z" transform="translate(-207.169 -139.521)" fill="#fff"/>
      <path id="Path_2691" data-name="Path 2691" d="M233.118,139.736h1.275c.941,0,1.253.479,1.253,1.065a.89.89,0,0,1-.527.839.962.962,0,0,1,.662.995c0,.629-.344,1.134-1.35,1.134h-1.312Zm1.328.339h-.963V141.5h1.005c.608,0,.758-.355.758-.7S235.129,140.075,234.446,140.075Zm-.963,3.355h.995c.758,0,.9-.409.9-.8,0-.543-.231-.8-.893-.8h-1.005Z" transform="translate(-218.519 -139.682)" fill="#fff"/>
      <path id="Path_2692" data-name="Path 2692" d="M245.459,143.608l1.425-4.087h.269l1.425,4.087h-.414l-.371-1.129h-1.549l-.371,1.129Zm.887-1.446h1.339l-.667-2.027Z" transform="translate(-227.773 -139.521)" fill="#fff"/>
      <path id="Path_2693" data-name="Path 2693" d="M260.638,143.43H262.5v.339h-2.232v-4.033h.366Z" transform="translate(-238.882 -139.682)" fill="#fff"/>
      <path id="Path_2694" data-name="Path 2694" d="M275.709,139.736h1.274c.941,0,1.253.479,1.253,1.065a.89.89,0,0,1-.527.839.962.962,0,0,1,.661.995c0,.629-.344,1.134-1.35,1.134h-1.312Zm1.328.339h-.962V141.5h1.005c.608,0,.758-.355.758-.7S277.72,140.075,277.037,140.075Zm-.962,3.355h.995c.758,0,.9-.409.9-.8,0-.543-.231-.8-.893-.8h-1.005Z" transform="translate(-250.458 -139.682)" fill="#fff"/>
      <path id="Path_2695" data-name="Path 2695" d="M289.49,143.43h1.866v.339h-2.232v-4.033h.366Z" transform="translate(-260.518 -139.682)" fill="#fff"/>
      <path id="Path_2696" data-name="Path 2696" d="M303.089,142.446v-2.71h.366v2.769a1.429,1.429,0,0,1-2.85,0v-2.769h.366v2.71a1.06,1.06,0,0,0,2.119,0Z" transform="translate(-269.127 -139.682)" fill="#fff"/>
      <path id="Path_2697" data-name="Path 2697" d="M317.462,141.838h-1.785v1.592h1.974v.339h-2.339v-4.033h2.339v.339h-1.974V141.5h1.785Z" transform="translate(-280.155 -139.682)" fill="#fff"/>
      <path id="Path_2698" data-name="Path 2698" d="M332.872,139.521a2.573,2.573,0,0,1,1.048.188v.36a2.5,2.5,0,0,0-1.048-.21c-.882,0-1.2.758-1.2,1.731s.317,1.731,1.2,1.731a2.507,2.507,0,0,0,1.048-.209v.36a2.578,2.578,0,0,1-1.048.188c-1.2,0-1.586-.925-1.586-2.07S331.668,139.521,332.872,139.521Z" transform="translate(-292.135 -139.521)" fill="#fff"/>
      <path id="Path_2699" data-name="Path 2699" d="M344.594,141.591c0-1.054.188-2.07,1.505-2.07s1.506,1.016,1.506,2.07-.188,2.07-1.506,2.07S344.594,142.645,344.594,141.591Zm2.624,0c0-.968-.145-1.731-1.119-1.731s-1.118.763-1.118,1.731.145,1.731,1.118,1.731S347.218,142.559,347.218,141.591Z" transform="translate(-302.114 -139.521)" fill="#fff"/>
      <path id="Path_2700" data-name="Path 2700" d="M361.735,143.15h-.3l-1.361-2.936.021,3.554h-.366v-4.033h.495l1.36,2.968,1.361-2.968h.495v4.033h-.366l.022-3.554Z" transform="translate(-313.464 -139.682)" fill="#fff"/>
      <path id="Path_2701" data-name="Path 2701" d="M378.348,143.769h-.366v-4.033h1.232c1.006,0,1.35.581,1.35,1.21s-.344,1.21-1.35,1.21h-.866Zm0-1.952h.914a.872.872,0,1,0,0-1.742h-.914Z" transform="translate(-327.152 -139.682)" fill="#fff"/>
      <path id="Path_2702" data-name="Path 2702" d="M388.174,143.608l1.425-4.087h.269l1.425,4.087h-.414l-.371-1.129h-1.549l-.371,1.129Zm.887-1.446H390.4l-.667-2.027Z" transform="translate(-334.795 -139.521)" fill="#fff"/>
      <path id="Path_2703" data-name="Path 2703" d="M405.509,143.769l-2.167-3.286.011,3.286h-.366v-4.033h.274l2.167,3.286-.011-3.286h.366v4.033Z" transform="translate(-345.903 -139.682)" fill="#fff"/>
      <path id="Path_2704" data-name="Path 2704" d="M418.441,142.1v1.667h-.366V142.1l-1.457-2.366h.4l1.237,2.07,1.237-2.07h.4Z" transform="translate(-356.125 -139.682)" fill="#fff"/>
    </g>
  </g>
</svg>
